<svg width="120" height="40" viewBox="0 0 120 40" xmlns="http://www.w3.org/2000/svg">
  <!-- 盾牌图标 -->
  <defs>
    <linearGradient id="shieldGradient" x1="0%" y1="0%" x2="0%" y2="100%">
      <stop offset="0%" style="stop-color:#1890ff;stop-opacity:1" />
      <stop offset="100%" style="stop-color:#096dd9;stop-opacity:1" />
    </linearGradient>
  </defs>
  
  <!-- 盾牌背景 -->
  <path d="M 8 4 L 8 12 Q 8 18 12 22 Q 16 26 20 28 Q 24 30 20 32 Q 16 34 12 30 Q 8 26 8 20 L 8 28 L 20 36 Q 24 38 28 36 L 40 28 L 40 20 Q 40 26 36 30 Q 32 34 28 32 Q 24 30 28 28 Q 32 26 36 22 Q 40 18 40 12 L 40 4 Z" 
        fill="url(#shieldGradient)" stroke="#096dd9" stroke-width="1"/>
  
  <!-- 数据图标 -->
  <circle cx="20" cy="20" r="3" fill="white"/>
  <circle cx="24" cy="16" r="2" fill="white"/>
  <circle cx="28" cy="20" r="2" fill="white"/>
  <circle cx="24" cy="24" r="2" fill="white"/>
  
  <!-- 连接线 -->
  <line x1="20" y1="20" x2="24" y2="16" stroke="white" stroke-width="1"/>
  <line x1="24" y1="16" x2="28" y2="20" stroke="white" stroke-width="1"/>
  <line x1="28" y1="20" x2="24" y2="24" stroke="white" stroke-width="1"/>
  <line x1="24" y1="24" x2="20" y2="20" stroke="white" stroke-width="1"/>
  
  <!-- 系统名称 -->
  <text x="50" y="16" font-family="Arial, sans-serif" font-size="12" font-weight="bold" fill="#1890ff">
    数据管控
  </text>
  <text x="50" y="28" font-family="Arial, sans-serif" font-size="8" fill="#666">
    DataReg
  </text>
</svg>
